PathFileType	4	(X/Y/Z)	Patient3_R_KneeIso_Processed.trc
DataRate	CameraRate	NumFrames	NumMarkers	Units	OrigDataRate	OrigDataStartFrame	OrigNumFrames
100.000000000000	100.000000000000	7	33	mm	100.000000000000	1	       301
Frame#	Time	L.Toe			Neck			R.Toe			R.Shoulder			L.Wrist			L.Shank.Lateral			L.Elbow			R.Shank.Lateral			L.Shoulder			R.Midfoot.Lateral			L.Midfoot.Superior			R.Midfoot.Superior			R.Heel			R.Thigh.Lateral			L.Heel			R.Patella			L.Midfoot.Lateral			R.Elbow			R.Wrist			R.Shank.Inferior			Sternum			R.Thigh.Inferior			L.Shank.Inferior			R.Shank.Superior			L.Thigh.Superior			R.Thigh.Superior			R.Asis			L.Asis			L.Shank.Superior			L.Patella			Sacral			L.Thigh.Lateral			L.Thigh.Inferior			
		X1	Y1	Z1	X2	Y2	Z2	X3	Y3	Z3	X4	Y4	Z4	X5	Y5	Z5	X6	Y6	Z6	X7	Y7	Z7	X8	Y8	Z8	X9	Y9	Z9	X10	Y10	Z10	X11	Y11	Z11	X12	Y12	Z12	X13	Y13	Z13	X14	Y14	Z14	X15	Y15	Z15	X16	Y16	Z16	X17	Y17	Z17	X18	Y18	Z18	X19	Y19	Z19	X20	Y20	Z20	X21	Y21	Z21	X22	Y22	Z22	X23	Y23	Z23	X24	Y24	Z24	X25	Y25	Z25	X26	Y26	Z26	X27	Y27	Z27	X28	Y28	Z28	X29	Y29	Z29	X30	Y30	Z30	X31	Y31	Z31	X32	Y32	Z32	X33	Y33	Z33	

1	1.000000000000	649.921357348509	43.454459061544	367.260683918960	416.026842140838	1477.729955184945	356.683849402944	692.171145294660	71.012009002965	602.509802453599	457.952452614852	1458.347238975970	503.108165278855	512.026782708030	1064.232714393542	-44.040175444492	416.413897231737	322.310557472187	296.197254856947	316.843390871521	1128.824685349282	112.969019253252	492.469100768232	378.312575653608	644.155982814953	448.807123619232	1441.037442429528	210.266773541250	481.197961386552	51.334399920329	646.078526819383	531.391512801328	89.507882208581	389.644947097924	565.092035464862	112.230415133529	593.893565389812	394.697831558753	47.656778032668	585.324907839139	534.355266936598	689.183029579427	612.670685908638	363.287651307368	32.645052919371	437.713225738431	619.036751103449	509.215641393370	554.248961975618	434.743972210446	27.138214420752	364.961787486016	499.708550147201	1154.098451291877	675.793224912968	631.104902325790	1244.286323244290	480.012463749900	535.094353735447	235.200114751177	593.437833108455	558.480674559940	1389.638453047065	360.410103088282	617.956207383316	628.135319821248	548.091757801386	490.773999712584	229.231778575017	364.139422483311	578.204657722828	405.120425214835	586.081636621702	603.149978393203	725.906276549405	285.984926559858	614.219388312182	743.857834201475	549.373331397928	551.685126291529	997.559178363079	523.805291147315	564.379740967642	957.781197054861	263.029480175155	509.714354883479	380.615259152265	329.525915942818	553.579764421693	489.470874419316	338.080336916598	386.502227574056	993.563404629463	388.888810739755	498.028046307709	652.705387508385	253.621150933246	575.647971988589	600.981072367961	311.290312973430	
2	1.010000000000	649.923417647507	43.439855246580	367.251435022110	415.972625560954	1477.698210699430	356.693016052943	692.591776947450	71.006790660329	602.258744032596	457.886564451546	1458.321401160476	503.112004038442	512.056678504925	1064.312010198759	-44.042786204282	416.453446753389	322.299768038047	296.244281773928	316.845730018915	1128.796763510321	112.968770030140	492.703327657505	378.245081543949	644.026134977635	448.771048702642	1441.017954131042	210.284678110623	481.626014301916	51.245536918970	645.832956421495	531.393198740953	89.506144780819	389.642633266041	565.499544523009	112.193071048200	593.671315219863	395.127768019362	47.569917645303	585.086626343931	534.450293523709	689.155216383656	612.618870343335	363.273588835249	32.672439028460	437.701428257362	619.193727989683	509.261131348636	554.135500041900	434.744337155489	27.138370765620	364.959839020773	499.701604559668	1154.081542507892	675.800081261062	631.093069633183	1244.311567945459	480.035971820119	535.406039693821	235.165314569917	593.260860300748	558.451602242020	1389.646949648843	360.426488730621	618.056231927980	628.149037031563	548.000082661480	490.811973860313	229.238513205517	364.191201533611	578.423325574778	405.125926780431	585.958102901839	603.223690927880	725.913704285067	286.055138603447	614.293160531705	743.861616506317	549.324271495495	551.693509704958	997.548034772392	523.825650370929	564.428547258401	957.781499789173	263.046274920659	509.758662843780	380.636565751188	329.569229098152	553.575224609354	489.474542743156	338.131528741947	386.537283579561	993.540111026013	388.897048765451	498.104373175903	652.700980667110	253.645678822947	575.686086829956	600.975456617588	311.345093450306	
3	1.020000000000	649.925785879221	43.425217972533	367.241472224093	415.926755885885	1477.667687118215	356.702323060434	692.997652974703	70.995798538796	601.997141552796	457.826119149021	1458.294672201563	503.116075095912	512.085047985833	1064.390833928987	-44.044158914320	416.496252230334	322.286648959298	296.292385519711	316.848587692978	1128.773201980786	112.970312876666	492.937758516295	378.180830420499	643.893776187695	448.743621609791	1440.999549864496	210.303296005093	482.040134985794	51.160548087465	645.585043643655	531.394588849948	89.504107326386	389.640411496870	565.893617551898	112.154887871917	593.443743074463	395.540835673649	47.490777653117	584.847977823659	534.544752173733	689.125869142238	612.561947930557	363.257728345388	32.702091740529	437.688429393449	619.353748364791	509.299811806845	554.017742572680	434.744627432251	27.138498947444	364.958060837496	499.693265933931	1154.061922123836	675.806343502461	631.082694099237	1244.332661293588	480.060401230986	535.712757276427	235.131750842455	593.077810167011	558.428527816674	1389.652843718851	360.444005684969	618.158420096644	628.163929530702	547.904767079626	490.850416229141	229.245307625851	364.245312873151	578.641409271813	405.131057980889	585.828804288678	603.295135556865	725.920955448076	286.130725388120	614.363012495300	743.866208947171	549.267512621263	551.698142103036	997.536035371565	523.844096849232	564.475408646550	957.779567304810	263.061880170667	509.801608768818	380.657691269693	329.614927594808	553.567418414726	489.478533632167	338.186914014535	386.569021493679	993.519314441970	388.902639246813	498.180434283034	652.696182274745	253.670638352906	575.720721539564	600.969712006628	311.405378845355	
4	1.030000000000	649.928531809974	43.410877972555	367.230949672738	415.889433302337	1477.638425283980	356.711399360872	693.386339448525	70.978591021159	601.727746473690	457.770969178195	1458.266915027858	503.120247277959	512.111976069069	1064.468905355848	-44.044569193496	416.541915544694	322.271235738333	296.340284168618	316.852071771552	1128.753996869855	112.973276383796	493.171123740710	378.120478236880	643.759638213954	448.725177209328	1440.982077414427	210.322326494142	482.437485166205	51.079826721757	645.336517092471	531.395671805740	89.501810438108	389.638310666878	566.271973373545	112.115907441010	593.212804461436	395.934421409022	47.419956604683	584.610306586338	534.637851210478	689.095023754759	612.500596492560	363.240344583323	32.733519848300	437.674470969789	619.516662366451	509.331153405916	553.896872686841	434.744866955158	27.138567363188	364.956458379380	499.682427761353	1154.039253843547	675.811727110140	631.073402666012	1244.349196193923	480.085959373806	536.012630838600	235.099638606828	592.890270401665	558.411427019670	1389.655724511485	360.462593530541	618.262436890035	628.179922508843	547.807119918531	490.888811624445	229.251909949125	364.300632594634	578.858097143113	405.135776329063	585.694804775002	603.363066427774	725.927706346789	286.210307123340	614.428222115091	743.871569525086	549.203958581099	551.698463504084	997.522949302475	523.860530398278	564.519625558066	957.775408708841	263.076031443302	509.842801324687	380.678055350032	329.661904180253	553.557028303379	489.482681458940	338.245309643725	386.596690235904	993.500845446691	388.905129218615	498.255591519328	652.691012365429	253.695395793379	575.751756939422	600.963924203536	311.469987972788	
5	1.040000000000	649.931698137159	43.397137264591	367.220049154653	415.860796778576	1477.610482283499	356.719928379761	693.755121741717	70.954648748357	601.453553586396	457.720910523630	1458.237986316053	503.124441698878	512.137585046552	1064.546002728155	-44.044358207401	416.589841737392	322.253651635583	296.386600901544	316.856314489803	1128.739119781406	112.977264069945	493.401797906464	378.064677502031	643.624298032776	448.715948492568	1440.965407597043	210.341504901881	482.814894533715	51.003772279169	645.089099273068	531.396450460682	89.499317721747	389.636341801684	566.632091225682	112.076177851154	592.980541089546	396.305697898979	47.358079757903	584.374940574241	534.728923476969	689.062823423747	612.435613375686	363.221832687779	32.766083851147	437.659870229633	619.682238454387	509.354923121398	553.773979958645	434.745085959406	27.138553202787	364.955019467285	499.667979362832	1154.013126979569	675.815867618083	631.064841195514	1244.360819828081	480.112814911550	536.303440397507	235.069188497809	592.699959524962	558.400189799257	1389.655231355537	360.482219364353	618.367809532732	628.196938759119	547.708283757008	490.926613176045	229.258092045507	364.355922518182	579.072407100339	405.140014614802	585.557240646817	603.426221520978	725.933621142412	286.292123721406	614.488172009166	743.877669468827	549.134586997431	551.693951211577	997.508576540880	523.874866017227	564.560482911622	957.769126271375	263.088424710974	509.881861259798	380.697123876201	329.708899573647	553.544759511957	489.486816965949	338.305269584967	386.619569780521	993.484477872853	388.904081190966	498.329101039507	652.685512176896	253.719207004979	575.779160320285	600.958181372205	311.537383255427	
6	1.050000000000	649.935296281260	43.384253779362	367.208973331164	415.840924630185	1477.583941034599	356.727653118094	694.100979120218	70.923393909856	601.177803939264	457.675689095519	1458.207758699207	503.128625819073	512.162047063464	1064.621960742708	-44.043911416027	416.639265828114	322.234105148335	296.429939453782	316.861472827810	1128.728525220755	112.981865460820	493.627845845158	378.014111218489	643.488207083928	448.716057039441	1440.949454922002	210.360602897639	483.168845115597	50.932856108382	644.844514017431	531.396940414887	89.496708529631	389.634498124051	566.971189249024	112.035776772160	592.749078676983	396.651605309234	47.305842709117	584.143181649104	534.817489616625	689.029537023776	612.367888395528	363.202714434110	32.798981990439	437.645024799193	619.850202379359	509.371193297010	553.650045152288	434.745321140931	27.138441541434	364.953716100252	499.648811750200	1153.983090742327	675.818332784469	631.056668378065	1244.367249945115	480.141090712620	536.582655123959	235.040632337754	592.508706608984	558.394619009291	1389.651071215837	360.502872943076	618.473986298123	628.214925378479	547.609197605674	490.963268183804	229.263656190263	364.409885896370	579.283199524157	405.143694516238	585.417324538290	603.483396974049	725.938383517642	286.374095994097	614.542395360215	743.884518054981	549.060385467812	551.684144247277	997.492770779611	523.887009187288	564.597253315009	957.760912271568	263.098708885824	509.918444916937	380.714430661968	329.754563936863	553.531323632188	489.490772840276	338.365159132899	386.636988828018	993.469945423883	388.899093982682	498.400147056217	652.679741852329	253.741245255157	575.802998001029	600.952578634614	311.605746229380	
7	1.060000000000	649.939308273641	43.372433026308	367.197937240428	415.829836216042	1477.558915620016	356.734377182822	694.420570287061	70.884208465843	600.903979541993	457.635013959921	1458.176139380320	503.132805018827	512.185594257165	1064.696665978109	-44.043633031044	416.689280990007	322.212883024336	296.468956261534	316.867726120410	1128.722159810574	112.986663656402	493.847097998356	377.969532959477	643.351746483145	448.725508623182	1440.934193675142	210.379426104159	483.495469737625	50.867676327292	644.604498921531	531.397169252685	89.494070717910	389.632755566174	567.286211786512	111.994830399067	592.520629000099	396.968833338078	47.264055462094	583.916308535697	534.903311017026	688.995565934581	612.298367185647	363.183624105506	32.831264705346	437.630403003356	620.020281015457	509.380332442863	553.525935147250	434.745615569556	27.138222431961	364.952510165895	499.623822883532	1153.948692501752	675.818643154705	631.048545984553	1244.368282894634	480.170861944290	536.847480617948	235.014249624486	592.318433939958	558.394434865374	1389.643030516378	360.524559126188	618.580406361882	628.233876352282	547.510579760277	490.998238889790	229.268438691484	364.461219703502	579.489199609657	405.146738723891	585.276347395656	603.533512665338	725.941725403152	286.453912116029	614.590620026096	743.892182705829	548.982291428897	551.668664487451	997.475455415435	523.896831806974	564.629201106396	957.751037494983	263.106480849391	509.952257849601	380.729592559050	329.797517136969	553.517414892710	489.494385288964	338.423235171284	386.648339368961	993.456960152892	388.889820745286	498.467873723859	652.673775254049	253.760631599996	575.823432132648	600.947221943070	311.673071411089	
